<mxfile host="65bd71144e">
    <diagram id="3DD-6c3M-EuH_3EbHw_g" name="Page-1">
        <mxGraphModel dx="2236" dy="787" grid="1" gridSize="10" guides="1" tooltips="1" connect="1" arrows="1" fold="1" page="1" pageScale="1" pageWidth="850" pageHeight="1100" math="0" shadow="0">
            <root>
                <mxCell id="0"/>
                <mxCell id="1" parent="0"/>
                <mxCell id="18" style="edgeStyle=none;html=1;entryX=0.5;entryY=0;entryDx=0;entryDy=0;entryPerimeter=0;" parent="1" source="5" target="13" edge="1">
                    <mxGeometry relative="1" as="geometry"/>
                </mxCell>
                <mxCell id="5" value="&lt;font color=&quot;#000000&quot;&gt;Start&lt;/font&gt;" style="strokeWidth=2;html=1;shape=mxgraph.flowchart.terminator;whiteSpace=wrap;fillColor=#d5e8d4;strokeColor=#82b366;" parent="1" vertex="1">
                    <mxGeometry x="370" y="10" width="100" height="50" as="geometry"/>
                </mxCell>
                <mxCell id="12" value="End" style="strokeWidth=2;html=1;shape=mxgraph.flowchart.terminator;whiteSpace=wrap;fillColor=#f8cecc;strokeColor=#b85450;" parent="1" vertex="1">
                    <mxGeometry x="370" y="800" width="100" height="50" as="geometry"/>
                </mxCell>
                <mxCell id="20" style="edgeStyle=none;html=1;" parent="1" source="13" edge="1">
                    <mxGeometry relative="1" as="geometry">
                        <mxPoint x="420" y="200" as="targetPoint"/>
                    </mxGeometry>
                </mxCell>
                <mxCell id="13" value="&lt;font color=&quot;#000000&quot;&gt;Display message:&lt;br&gt;&quot;Enter the width of the reclargle&quot;&lt;/font&gt;" style="strokeWidth=2;html=1;shape=mxgraph.flowchart.display;whiteSpace=wrap;fillColor=#e1d5e7;strokeColor=#9673A6;" parent="1" vertex="1">
                    <mxGeometry x="335" y="90" width="170" height="70" as="geometry"/>
                </mxCell>
                <mxCell id="22" style="edgeStyle=none;html=1;entryX=0.5;entryY=0;entryDx=0;entryDy=0;entryPerimeter=0;" parent="1" source="16" target="21" edge="1">
                    <mxGeometry relative="1" as="geometry"/>
                </mxCell>
                <mxCell id="16" value="&lt;font color=&quot;#030303&quot;&gt;Read width input&lt;/font&gt;" style="html=1;strokeWidth=2;shape=manualInput;whiteSpace=wrap;rounded=1;size=26;arcSize=11;fillColor=#fff2cc;strokeColor=#d6b656;" parent="1" vertex="1">
                    <mxGeometry x="355" y="190" width="130" height="75.83" as="geometry"/>
                </mxCell>
                <mxCell id="28" style="edgeStyle=none;html=1;entryX=0.5;entryY=0;entryDx=0;entryDy=0;entryPerimeter=0;" parent="1" source="17" target="26" edge="1">
                    <mxGeometry relative="1" as="geometry"/>
                </mxCell>
                <mxCell id="17" value="&lt;font color=&quot;#030303&quot;&gt;Calculace area:area = width * height&lt;/font&gt;" style="rounded=1;whiteSpace=wrap;html=1;absoluteArcSize=1;arcSize=14;strokeWidth=2;fillColor=#dae8fc;strokeColor=#6c8ebf;" parent="1" vertex="1">
                    <mxGeometry x="295" y="540" width="250" height="100" as="geometry"/>
                </mxCell>
                <mxCell id="19" value="" style="shape=image;verticalLabelPosition=bottom;labelBackgroundColor=default;verticalAlign=top;aspect=fixed;imageAspect=0;image=data:image/png,iVBORw0KGgoAAAANSUhEUgAAAOUAAAErCAYAAAAhXERmAAAAAXNSR0IArs4c6QAAAARnQU1BAACxjwv8YQUAAAAJcEhZcwAADsMAAA7DAcdvqGQAAE8kSURBVHhe7Z0HXBVH18Yfeu92RBDEAvYudqPGkthrLNGo0Rg1JsYSY++JMbFr1NiNvWHvXUFFEVARsCBF6b2375zh3ny8vmjyqsF7ufP3t969s7uzs8s8c86ZmburlUdAIpGoDNqKT4lEoiJIUUokKoYUpUSiYkhRSiQqhuzoKUJSUlJw+eRJxIWGIi87W5GqOWjr6cGqQgW06dQJ+vr6ilTJq0hRFhHp6emYN3Ik5n38MVCihCJVw9DWRlZwMOZ6eeHH336DgYGBYoOkIFKURcSxgwfROS0NsLEB+FNTMTVFvL8/blWqhHYdOigSJQWRMWURkUwuq7CQmixIJjkZli4uiCaLKSkcKcoiIlcDY8jXkpWFXFokhSNFKZGoGFKUEomKIUUpkagYUpTFFR5uMDLKX3hdS0uxoRB425u2S4oUKcriCIkwOjoaX/zyC1pNnIiIiAhATw/gAXsWqKEhoKPz/8LlbbxIYaoEUpTFEW1tdJg1C53r1MGxH39E0MuX6Dl7NrJSUxFO6495OIIEGRIejlBaxqxahdsPHuSLVfLBkaIsjuTlwZ3E2GvxYszbswdNXVxw4OZNZGRnY9Lmzei1YAE8791DheHDcf3+fVz094ewkdJSqgRSlMWUxPR05Lm7Y9HJkzh44wba164N0xIl0MDZGTaWlnAoVQqDWrZEn27dUNrMDC52dkBOjuJoyYdEirKYUu3rr7GOBFm7bFnUtLfHaW9vHDx7FuP/+AN6FE+uOHYM2y5dQjbFmw4lS2L0unX5cabkgyPnvhYRO3/7Df1dXQGK6/51KKYUrih/svUzNs6f3sedOsnJgK5u/jbln57XmczM/0/7N6Fy7AgMxIAxYxQJkoJIS1kcyc3NF5fSHWUhchp/KoXK09yUS0ZG0QlS8rdIURZXWITKhVEKTinYVwUoBakySFFKJCqGFKVEomJIURYlSldSInkDUpRFhIG5eX6PqBygF0Mv+nw/JIUih0SKiDu3b+Px7NnoPXFi/rCIJt52bpBMTLBm2jR8tG4dKlepotggKYgUZRHivncvQvbvx8e1a8NSXx85H+BpBHplyogJA0X9Z9fR00NCejoO372LGp9/jradOpFGpddQGFKURQz/eiMoMBBpRTGJoBDatG2LU6dPQ085YaAIMSYrWYmn+fHDwySvRYpSwxg8eDA2btwIXZ7VI1FJZEePRKJiSFFKJCqGFKVEomJIUUokKoYUpUSiYkhRSiQqhhSlhqH9AcYnJf8b8i8kkagYUpQaCE8cyJIv2FFZpCg1hISEBBw7dky8vPbIkSPI5Md/SFQSKUoNwdzcHJcvX8bu3bsRGBgIExMTxRaJqiHnvmoQL168gGv16mJCvLW1tSJVompotCgjIyNxZN8BGOjpK1KKNzHJiXgRFo7yduVhaWyqSFVfcpCH3gP6w5gfoVmM0GhRcmfHygnT8W23zxWPWFRsKMbk6lDMUhwehG5oiH1b/0SFkZ3RsHFDRWLxQOPd101r1mFoJTfEpCYU+Q9/Je9GCcuS2HDnFIZ/N06RUjzQ+I4et9Yt8fufW2FuLDs+1I3srDQk+YciNjZWkVI80HhRVq5SGRm2ZtCVt0Lt4LeItatWG7c9bypSigcaXxP5OTFlq1VCYmwc9HT1FKkfDm0qjxlZbVMjY/GptOC8rvuaF/Do6ejCxNBI8U1zSMtIR/VatRDgeQe5xejxndI8EG4tm2PT8cMw4Tcbf0BYkNwwTF7/K0Ytn4sJq37G+bs3UaJUWbgM6Y3s7ByYGBnBiMqpp6tLn4awMDFDamY6ukz7WgiTt3E69yjzJwtZ2bvM67yd99PX0xOf3CgVXDfU5+MNRFn4eN7G5+LtOtratOiIdd6Pv4u8qMy61DDwvkVNVk4WtEPiERISokhRf6QoCdvy5WFctTy5sDof9AlruXl5omLra+uiSll7zB8xHh2njML+s0ewb/YilLCyRlhkJJ6+DBeW4XnkC9x+5AcrEuZZL0/k0b9nES8Q/DIMiekp4lObhBgeHQljEk9OTjaeR7zEvcePyMpk4N6TQNhYWCExJQXeQf5iPSIuGo/DQmFlZoGg8BCxLYvcxJv+90mc+tDR0YbHQx+8jI2CAQnzdsADpKSnCXFExMUWuTDTMzPRvUVr3L1RfFxYKUoF9rWq4eGjh8ICfGj09HSQSUKwsLDEwTnL8Lv7XtT9sjeekEiaf/85rt+/C/cbF9Fp4kiM+HU29lw6BdsSJRCXnIyfdq7HwEXTcPvhA7h+0Q0Pgx9j2uaVQpRBL8LgMrQL/jxzFN+uWYzOY/rjqp8XxixfALexA7H19CG0nzCChP4QW04fhvv1c/B44I0Rv8wmAftj2f6t6LdgImIS4uA8qDOWH9iO456XUa53azx9EYolOzcX+f3LyMpEWbsKCPZ+QI1O8XjprRSlgkZuTXD83k0YqkBcaWpgDAtTU4AquHfgQzRxrYUuTVujNFnKj2o2wcGLZ1HZ1gHDPumBEz+txQ0/X1QsU57iT2PUcqwGY30dNKteC01d62PdkQPYPGkuklNT4Ej7dGncGoM7dqX9nDF33FQ8CH4KHfIOQnefQ7u6bujYtBXWH92DDg2aY8bGVYhNSsTgj7uQm2qIZLKu7VwbIogs9ZbJC8jlP4RB7T7F7TV70LBWQ6ydPJssa7LiKoqOjOxMlMvQw32/+4oU9UaKUoGlpSWsqzuSA8ux3Ye5LRzHpVPF33v1HFYd2YNZqxdj89njGNOtP9yvXcBJz+soa2ODHPKwk9JSsfLQn1j053r0a/MxWTxvHL5+Ad+vXYyohESc8/bEuu+nwe+Zv4gDOZ70exoAd48LuEb7nrx9HYeuXEQqifXA1bP4bs0iEugTvIyKggW5rgevnseab6fjbtAj9JgxDoGhIVi9fz8y8nJwwuOSiDt7Nv8IrkO7ktW+hFNXzqDthC+oYSj6mULsindp2QZ+t7wUKeqNnPtagOtXryH1jDeakdVMpkr/IWBhGlKF578KC4ljxyyKBbXon76uLtLJrdXX1cFF79s4ffMKloyejOzcHNETaWJghPiUJNGxExEXhb6zJ2DjpAWobGcv4j7u0eX4kOO+HDqGYcGm07E5dD4zsrQp6el0JpC11UcSrRvSZwbFbQbkQeRq58K6TyO82H4VnaaNw7E5SykG14apsQm5jrnIo3KmZ2d9kEkY1qbmWH5kN0Yvngl9KrM6Iy1lAerWrwffxDAY6nw4F5Y7e1JJDCyyJLJiLKbMrCwRO7F1zKFKr0tCCifRWZhbisaDFxYbC5J7RFm8AeGhGNie3NRKlUUeDO8n8qF8+Ry88Ho2CV8LeUhITkIuCYs7hBIondPS6Ni8vFykZWVAX0sP275bgs9mT8bWCbNhZmQqzpdELmtaeuoHEySTQeeuV8oRNz08FSnqi7SUr7Bzw2Z0K1EVGeTHZlPlfB1c8Xn4QoesGcOWQls7v+eWe3Bfja3YJc6lyv06+EgtquDGBoZCYCyeN5HvJuYhuYAFZCGzW8nWj2FLm0OC4w6QVNr2OsxNTIVFZvFnUuVma815cqkSU//zOnhfrjJ/lyfzd9dcEB6HZbiRUKJM4zxS06hxEN8Kh89lTWXe9OA6ho4frUhVT6SlfIWaTRpg/+kTJI7X9yKyIJNIDG5f9cW2M+7YfeEExq9ZiFmb12DUsjlYdeBPlLCwgrGhIYz0DcRYoq6uthjk58puQO4ju5i8nT9ZxMaUzvv2nDEe8UmJ+R09BO/DQlXC63wMu5+pFEtZm5mj39wpePA0CCUsrfE8MgJjli0U58ilhmLAoh/xLCIc1uYWihzyGw0eX+TzWdHxR29cRp2veiKOBGhlaiZ6an8/dgBrjuwUefL+7PJy2Vk0vHDvMJdFOSbK23g/Xv9rHFOHvpMrmT82aigsPB/D+7KF5UbDhNZLWFjiEMXDszevEpMleLsllaPTD2Nw1ecO6g3rTy69oWi4XgcLN4fOH+UbiMTEREWqeiJF+QqVK1dGlBkL7/VxCbt7FlRxWtRtgvqVXWFjZom9Zy5iwEcdsW78TFSu4ICAsGcICHmOiPhY7Lt8EtPXryShmePafW9yM1OQQK4mb4+MixUVcfrGlbjmdxfxVKECw0Pw9MULlLAugYfPn+Hxi1CxD1fogNBgckNT4Ps0kISuA//nT7Fg+NdwqeiE6IRY0VH054l92H/5HLacdoduXhYCw57TuZ4JAbFwTI2McDPAF+ExUYhJiEfPmd/g4MwVsCtRCr7PHmPE4jloWNkFXo8ewDswf/ySxys9/X2pgTEVHkIeNQpczuCIUMST28vjlTbkTsenJOL2o/sUh2Zg6KIZojwhERF0Hc9hZGSIJy/C4PnQl2LW/MkKHnQ/gsJCUK9SNWw7e1gIl+/Ri5ho9G7ZBtZWlmjTqAF0yBL+nUuXRt5FL7c2uHLxkiJFPZGifAU9sggOdasjMiyMrEPhwszLpVgrOwNzh46FrU1ptK3XmIRYDptJBPrt66CqXUVUGfQJjntcRmdq7cOjo8kSGmHetnW44nsXFfp+hFWHdqPOlz3hH/JEuIPX/byE9bE0tRAD+VUGd8KZm1exgyxxzWHdEZUQJ6xLnS+H4JKPFxqN7o8nFDf+cewgOkz8Eo9CgjHy1zmIS4pHuZJ2JJYwIRYDEqJP0CNUG9JFxIamZMV+/GMlImLjUHlwZxJssLgmtrz8pLtoOs8t/7tiUN73yROM+GUGLnnfxNgV89Hrx/FYun8rxbIWuOJ3B7WH98D5u7cwcd2vaD5uEDadPIQpvy/H/mtnceOhDw7S58vYaCzatQkDF04Swq0xrBt2XzyJXRePY+iv0xFClt15UCdx/qp2Tljpvouu/xEq9GuL7s3aw8XWAfO/GIe0zDe7ygy7/I529gi7H6BIUU+kKAuhQdMm2HPpNLl3rxEl/dPO0yGLmS1muGRTfMVu2vBOPZBwxIPSdDGgTScM6tAFFUqWRUlLK7Sq0xAbT+5H7xZt8WjbMXILLbB75hJ0btoGOSRKu9JlUcuxspjSNrRDV3zq1hJ7r5xG0+p14bPxkBiL0yYrcn/TdizduxVt67hhxubVGN2jH7o0+4isjjYOXD6DNvXdULKEFVk3S9Qja2dpQu5tm46oZV+N3D8tYeWX7NmEtnUbYfU304SVakONSiXbCkhLTydrZ4HWdRqjDFnpLlSGyf2+wL1nQcjMyIL3pv3o3KgVB9CoWNYOo7r0Qbt6TchNzkHk/svQItFXKm+LpeOmU7nrwLG0HZxs7VDT0QkOpcqhtKUN2jZogi8798ITajRaVq0nLP+a8dPJbTane2KF1Xt3olPj5ri5eheMDPWRSo1DTnaOiI3/Dm7csrVyEe8XjAiyzuqKFGUhlCtXDlr2NtDTfn0vLAuTO0e4UySOLNJl39tYf/QAFv65AV8tnS9csKs+d3Ha6woMyeIOnP8dBrb7FNW/6IaDl87C85EPNh4/gPS0VJGHfSlbLNy5AYc9zuOC920cuX4JzV3qotesb7Fi/3aYGBgjleJYRxIDu5HLxk3G4atnYV+iDFYc2CFm7tR2csFUslo8DU5fzwCztq7G/isX4eHvg3vBDxEc9ZLyMcS2Hxag15xJOHPbA5XtHHDeywOPyRXlmNeCYrm1R/dg14WTuOhzC+4U6yUlJePGAz+MXTYPT0lM5DeLMc+17nuo4TLE3kunMGblfBKgPeZsXYveP47Bc4pjn0SEUMx9FBPWLBbDKzvOHsHZWzfovnjB48E9MeZ56d5N0ePs6e+HXedP4tv+n8Pl80+x8/xxEnm+0P5pZxHDHV/f9BuI86dOK1LUD9n7+hpOHjsO+yfJqFDJUfRqvgk9HZ4zq02ur25+jyOJlSuSno4euYEZoqODx//4Myk1VcR0SpTjoTzWx0+Y4x5cdpvFcfoGYpjDmASZk8M9o9kiDuO4y8jQUAxpcOPAY4hsYdOzMshqUwWmP6kJ5cc9lpzOYmP3j49Lo3xZeGm0TYfKy2k8DsmuMW8zpnOm0XlMKX/uYeXziUkN5BqytTKjWDohJVn0worHVGohv1xUi0yNuSMoNb8XmTwHvmbu4ElMTSFPQo92ze+N5c4gLpNO24aIOHBaNBC7pi4QnVs8uZ3dbjMjKj+Vme/l/4q1sRmWnzuIMfOnqeV7OKUoXwP34K2bMAvj+wwmYbz71DGu2GwRuPK/zhVT7lMQ3p8rZsFUFgr/2V7dn91TFjWnFba9IBw/5r2Sr5LCjlPmXVjZuTy8cDnFOqXx8QWvOZficN6grG7cw3rc4wrWHd2HZWMmw6GsrejVZXhIRzm54W3gzqj1Wzej7bSvULlKFUWq+iBF+Rr4tqz55TeMbvQpomPVNz5RZXislS39Pxnz/F/ghsHG1AobH13BF6NHKlLVBxlTvgb+w9Zr7objx91Fqy55//DEBLaO71OQDDeoublZiPUPRiq50+qGFOUbqF2nDh6mR0Of3CmJepFJ7m9N01K45+2tSFEfpPv6NyifdpdN/+SdUi/0zK2x5vJ+jJo4Xng+6oIU5d8QEBCA+Y0HocPwrmJ+qTrDFdPIwgwpsfGih7S4w7+2OXD4GNZcPQQrNXoivBTlPyA0NFSxpv7Y2dkhJDSEAi9FggZgY2MDowLDUKqOFKWGMWTIEGzYsEEtx+80BdnRI5GoGFKUEomKIUUpkagYUpQSiYohRSmRqBhSlBKJiiFFqWHIETDVR4pSw5CiVH2kKDWEgr+W4IkDGRkZim8SVUOKUoPYtGmT+PH2okWL3uoX/ZKiQYpSQ+C5n0lJSTh8+DAcHBzUai6opiHnvmoQycnJ6N27Fw4cOChFqcJIUf5LHD16Cj4+sYpvqkFCQgKys9NgYGAKU8UT2NWB7OxM1K5dCl26dFSkFG+kKP8F+JkzM2b8jo4dR0MNn0ahUrBBP3ToOoYNs4aLS1VFavFGivJfIDAwEIsW+aBv355SlO+IuTlw5swazJ07QmN+biY7ev4Frl+/hw4deiLzzS/OkvwNenpASEgO6tSx1ajff0pRvmf4gcr37kWDnz6h5k8P+eCwKC9e3IYmTeoqUjQDKcr3jLe3D7XqNaUg3wP8KhdHx0yUL2+rSNEMpCjfM7duPUKrVm6QE2beDX49qJdXMBo1clarJ9G9D6Qo3yM8OO/rmyRa+HeZMMPHGxvn9zz+k1CK3bw3DTtyneb8lHCFN1S8h5ZfRF1wmxLOT/GS6g8CX7e//3E0aFBHkaI5SFG+Rzw8bqNSpc7v5LqyIF++DCFx3yRX+ArS0jKE6JiCBkO5zvvHxMTiwYN7hQqT9+Pjjx7dJMTHggwJeYbg4Gci7uW+d2/v6/8hTM7n4sX9yMriV/0pEv+GwoT9tnCZ+bxVqujB0vL/30CtKUhRvkfu3n2OmjXt3sl15cqYmBiD779vRGIyQZ8+hsLqcqVn68GCYSvHQuPPfKuche++qy324+NZeCYm+dv5OF6srMqCH/XKaQ8eXMaBAwvIPfRGamoyJk9uKs7NxzC8n7l5WdHjqcyPz8vn4nX+5H05X05ncXt4nKVz5B//rnAZT5y4jubNa5NAC7REGoIU5XsiMjIKDx9milb+XUZ+WViWlmVQsWJtqvj//wDhHTt+JoGWo/NE46efBmPZshFISckR6Vev7oazc0OxX0ZGJjp10sLNm5exdOlX8PPzhrv7NrKUy0TZli8fj0uXdsHBoRYJuQ4eP76LcuWqUPpYHDu2TYiNx1Y3bBiH+PgIDB3qjJUrx9C2TZg16xOsWDEGEyY0w9mz+ynfjZTWE56enpg5sx2JPUgI6l3hRiEnxxe1alVXpGgWUpTviUuXruOjj4a9l7FJfg16enoKRo2qiF9/9SZ3MwhhYfcxevSvYrZQ06Z9SUx34ONzhrb5k1jHkcucJY41M9NH48bdaC0Xp06txfPnvmjTZhCJOZTKeBKOjg0xYgQLVAetWg0gy96crJ0hxo1bQUIfTC6r0jIa0acZCTMII0euxLVrO0gs+vjmm5VkQQ2EdU5LS4aTU13a14Jiv09pvRKVWxTjrVEaRmdnQxL4e1C4GiJF+Z7w949HmTLaolK/C/mWNhexsTHYvDlK4ZZm4Ny5rShfvhqJ8RaWLBkCe/ta1ACkUfomEmYInj69K2JZPr5///mYNq01hgz5BdevHxDuZmioH0qWrEAi/4r296PlPsWV3ggPf0x53hMWuiBRUU+pHDmikRGvqkuNI1dWV4guMTGKXFZbPHlyF+fPb0FSUiRu3TqC6OiEv+Lft4Vd4vXrd6B9++aKFM1DTrN7Dzx9+hRTplzE8OFDyaVUJL4lHKPduXOZRBRAlncoiecBnj3zRalS5SluO4hJk37Dzp2/w86OxZpFIjCg2PAIqlRpiiZNPhai4alp9+/7UyPhRN+TaR99IZ6uXUfT504Rs9as2YbOpkVl9yYxZ8LWtiqd8yG5vkNETHzhwlZUqFCd0vLziY19gePHV6Bhw09p6Y7Kle3x55/LqaGojkqV6pFAvciymaF69QbvZC3Zfb548XfMmTOcGoF/2MtUzJCifA9s2LCDKucAYVXeZShECQuTLR5bXe7cUbp0DFf4wrw63qdgg8B5KC0n/4XZgnF+Skum/Ktz/FawBqSl5R/D5+B05bl5vUMHLfzyy03Ur98ACQn5+/B2Pg/rh6/9XQTJeXAZ09L2YMCAPopUzUOK8h1h127KlA1o125ksZ58zrWEGwilcP6NWsNW8o8/VmHFir7kapdQpGoeMqZ8R7y971EFdVF8K76wRWRL+G8JUmmR69Y102hBMlKU7wA7GRcveuGTT5prxE+0WIz/hiAZdqsfP46jmLS0IkVzkaJ8B1IoiAsKyhbWQ/JusChv3dqF5s3dFCmaixTlO+Dp6QUHh48prlQkSN6K/MkCQM2apjAzM1Okai5SlG8Ju64eHv5o1MjxnXocJfnT9m7e9EODBpUUKZqN7H19SyIjIzFjxin07z9IDCNI3h4evjl8eB1++mkoubHvOPugGCBF+Zbs3XsI58+XQ9myliRK9Xnuh4ODGYKDk/61Dpv/FW3yXZOT2XX1w7Bhmjs2WRApyrfE19ePKtM7Tt/5ALi5Nca1a9ehpaU6kQvXwKpVK8Pa+j39zETNkaLUMIYMGYINGzaIn2VJVBPZ0SORqBhSlBKJiiFFKZGoGFKUEomKIUUpkagYUpQSiYohRSmRqBhSlBKJiiFFqSHkFnhOCU8cyJK/N1NZpCg1BH6lwokTJ5Ceng53d3ekyhdnqixSlBqCubk5zpw5g927dyMgIAAWFpr3OgB1Qc591SDCw8NhW9EeMS8iYM3vGpCoJBoryoyMDGzdsBEGKvRriX+bqMQ4xEZEo1TZ0rAyNVekqjcG5mboO/AzxbfigcaKki97zU9LMLpVfyA+WpFa/MmhNkjnPTybViUwMsIvf6zAoMXTULp08Xnglka7r9evXUPmmXto1KQxUtJkx4e6YahvgKiwF3hQMg+du3VVpKo/Gt3RU79BA9yJDYG+tmY+Hl/dSc/MQEUnJzy+7Sceil1c0GhR8vNgzJztoJOnBW0Vii21tbg8iqcTK9D9m/dq6Ghow5KVnQX9Fwl49vSpIkX90WhR8gtJ3dq0xI5D+2BqZKxI/cBQMKGrxy9r1YWpoRHMqFz61Hhk5+RC7zXCZDcuOydbI4WZStayX/vO8LruqUhRfzRalIyrqysSSxpD9xXL9CHgRsKABDhw/g/oNXs8JqxdgrGrFsLcwhKtx41AZnYOLE3NYG5iChMSrLmxKSxoPSE1CaV6tICero7YxouZsbHYzoI1M85/RTOvcxp/Vy5sgc2MlOu6Yjsfr6erl58Pbcs/lwkdrw8jA87DRGzLz4+OpYbDyMDwgzRsbCktS9gg3OdRsZmlpPGiZKwr2SElIYUq4od9bg33uelTxW/gXBUd6jfHqgkz8fh5KBZt/R3Thg5DSesSOO55FYv3bEJwZBi2nzuKYT/PgIVx/gOMtclSLj+wE/suncJVX2/sOHsESSlJ+GXfJpSwsELwi1DsuXgS3675Cd6BDzFt4woSlRk8H/lixqaVJDQTnL1zHTM2riEhGmLr6cM4d9cDQWHPMXrZT4hLTkFEbAyG/zILh66eR3J6KsauWAyvQH8EhYdg84lDH0SYGdmZcNaxgI+PjyJFvZGiJJq1aYX1h/fAhFp7VSAtOwPJ3BtMIp3QdxCO3riMkUvnIfhlKLpOG4OP6jSC35PHWLN/J+pUdsHi3RtRqZwtElKSyZIaY8D8KUKEXyyegcCXYahgY0u55kGHrPCghT+gmWs9zN+xHhExUTh84zxG/DoDoTGRWHd0Lzr/8DV6tmiDdUf24exdTzjbVsCRG5fwSdPm+G3fZjgN7IhFI8aj75wJmL5hJVwdHdF07ABhMcvalBINS1GTmpGBDi1a4eGtu4oU9UaKkrC1tYWpawXoamtDi/59aPS19YTLyK+imr5pFUZ36YM6Ts4w1jfC9qk/ocnXJAJyH7u2aI3PP/4UmeS28YRz/rwT4I+eLdvCrlRpOq4fvlo8F31atUNiagqsTS3QrnYTOJQph/pVXVG3iguiE+PhVKo8dsxaihY16mLXjCVoOLofOjZpAUsDM4xbvQhPqDEoZWaOrNw8HJy1DMsP/wnvDfux4cQ+DGn7KR5uOgL7MmXxiVsLEkjRPy4+JzcH5PfjpfejYjGnV4pSgZ1rFTwKCBJx04eCe1wzMjPhT+7iBZ9b+H75QvT/qDN6t/oYYRHhuPXQFxfu3caCEd9CX08fS3f9gSV7tmLkp32gR/Hdg2dBuODliexcLVym/X4c/CW6NG0hxK1PMeL94CCk52YgIPQZQiIjaP+nMNE3pGs2hFbTStDR1cfG44ewYPh43H7oh0oV7NGj+ceIjIvG4euX8OhZIG4F3ccVn7v4dfcm7J7xCyy6NMYl3zs45nER7b8fLeLLD0FGVibaVamDG9euK1LUFzn3VUFcXBzWT5pH7uJgip2SFKlFDwvTmKwk/1n46eFst1PS02BAotOmL2SsYExu9vpjB3Dm9lX8Oe1nZGVnU3qeiIm5chqQuM7e8SBX9CuE7DlPMaeJSOd4j/fTpdgzNy9/Wg+fgztLuBbwOp9Xh8rAnU68B7faOWSF+Tu/7tygfR3s+PFnBISF4PveA7mzWDQQuTk5Yh/hdn8A+Nw2hmbY6HcRX0wYp0hVT6QoC7Bx6Sp8UbUZYjNT/uP3h4WhQxU4lxSiTUrJv4X5bm8e/3vLW8oVi5fXnZu36WhpiyGSwPBgpKZlwqWCA7JJYFyebBYG7cc9p4npyUhJSYeTbXnE/4NGhoXKB/MgvLL0nCdfCguYz81DMjFJCXgaFob61VyokdARlp2v+X1Q2PWL+0yFeNN9UWJpYoalOzbhC4qR1XnCvRRlAa5fvYb0c95wa9RE9Cy+DmVlNTE2REpaOlVWXfqeKywN25aMrIz/EKYBWRK2VK+DKxwPhfCrBLLJ6uVQXq9WQN7HmNzM9BzKhxoDtk5sVTmG4/HJ7JwsMaTBwmQ4Js2gvMiEUX75ZWFLynHnq7DIWXhZWTnQ0dMV76XjMrMF1tbRok8SqiIPTtfVzRej8lxvgq8r4x8MVfDkDQMKHbLpXDl5OeL6xX2mazUyomuh83EZ3yRMLltKTAI8jBLQrXcvRar6IWPKAtSuWwfeseHk/r15aESfXEmbbk1x0uMqKg/uiskbfkPPWd9h3bG9aPzNQFibWUCM9/E4Ii1R8XFiPFE5vsfup3I8kMVmZmhMLmo6es/+Hu4Um1lb2QiBi/1p4crJsdqIpXOwzn0PrKxLkLgyxT75Y4QGqD9yMIwU45B8Lm4ErD5tjBQSLZeHJyLEJiaIsUWGXWRlGVgQ87eux5CfpsOYrCy7yimZGbDq6oYn4SGwsbQW5eR9ueKnUllZkMrysVusvF7lfrxYmZohis7JFky5r3LMk8dFldclymxqim4zxmDd8b2ivLzdgO6TTfdmOHr9Aqy6NBHX9yb4msuUK4PIR+o9u0dnFqFY13h42t3jkGBUNbRBLjVX7DYVhjFVjgZVXNGqbhM0rFKFWvc8OJQtg4mfjUSjyi7wDnqEK75e8HhwTwyqu37RFUM79sS20+4IjniJkhZWYizxxK1r6OjWGr/t3YxRq2ZjUs/B2HXhNGLjYtCyvhuOXbuI/dfOo1XNBmSxtJFDlmzXxSOIjovHR/Wa4LyXJ7adO0rb68HKzBQNatTBUdp/1/mTKGNdEiHREYhLSkQWCei452V0nDIKk/t9AROyPIHPn+HrtQvhYueAmw/9xNjl0YUrxVDK1ysW4PTNK6jv7ILQmCiERUehcd1G2HR0H7wCH8DNpaYYTz128yqOXLtE5zbDUc8reBj8GG51G2P5vm04f9dTxMKNR/fH4PafYOHOzcKSs8U7cfMaDlw+h46Nm8LT3w+Ld2+he6oPFwdHhMfEwrZESXy7+jc0d62F5rUaoFnN+uIanWwrFGrpC8J/Q48zl1C2gava/pBbivIVtPV1cX7nftSuXvO1bhenuzhUIlcqG64VnYUAp6xbiujYGLJSxrhNFS03VwtLD27Hd70+x80HvsJSJaalYsyyuWheoy4GLZqK30ZPQhkrEk/UC9RwqAxTA55WZ4qd506QcC3w865t8HnijxKWNqhZuRruBT5EelY27lD+pnQeHi5h95Vdy6E/T8M3XT9Dq8mD0KZmYyRQTMmNwvBOPdHq2yH4tvfnqF6xElpQ5eZxPYfP2uP26t2w79ceC74cj8i4OAzp0FXkFRgWjPbUKHjc90WHxs3RZ9a3qGJrh1sP72Hm5lXo36YzrM0tMGPjCpSwsoTP40d0bSn4fs1iMXRSw95RCLlOparI0cpFVVsnlLGxQSdqFPq36USN0HakZaejqp2jEO2vX01Cn8VT0cutjYhtp21agWY1auOH9YvpHk2mUDcPzuUdkJT692854+mGLWs3wEGvK6hdr66w3OqGdF9foUrVqogy04G+zptfXsoVhMXJLT8vi7+agJU//oRK5Rwo7stF/cpVhTVNI2uRRjGm75MA0drHHroGS3NzDGjbGa4OztTyZwiLwmNt7JLWcq4MVzsnPH0RisYurrj7x0GUs7ah2pYtYrtaFR3RpHotYQWrlbfHkcXrxXns6byWZLE61m5NLqoRhrbvKixkFbKElctXFhYmvxc1P25leJikhn0lpJFIX5BFVMZrUQnxtE7xorYWXO0ron1DN9whC9mSLFbKsZuITogV8axTeTv0bd0BdwMC0bJ6PSQfv4mVB/4klzURkz8bRu5ynLg30YkxYqJCyzoNqYGxRlNq8GpSY8ZjwpP7DoPHw7t4ssGd8o1DHuV7+4EPfug/HBsn/0T3LgvplMc/ESTD15ijq4VY/+C/rlPdkKJ8BXZ/7Gu7IJrcTO4AeRPcBnNs5fs0CJfv3sbM1Qsxbuk8iiONcJ9cubiEREQkxECPrO+nbq3QdNwgzNm2jkSYAY9H98WAPlf+pq51sGLfPjx4/lzklZyVjCr2TrjkdROVB3WCU7nyQrTPIkNpiUJQeBjKWZbES8pbq10lqsg69IfMwqPQp3C/cw3XH9zBGvfdsDQ0xy1/X4rdslG+ZBn8uGEZIuKiYU1W+I+JczBs8UxM7D8MYZEvkZCcgGR+JTWJomfzNpizYwNSs9JxNzAAsQkJ6NWsHfrM+R5Dl8xEXWdXUfn9ngVhz/lTWP3dVHw8+UuMX/UzLi3bgr5zvsPIX2ejVqVquOMXSNY+CCdv3wDycnGSXN7UzDQ8f/kCwVHhuOp3B1d97mHBn+vxgsr2JPw55o8YD52PaiA2KV5M6Phf4f5ju2x9PLz/QJGiXsje10IICQnBoVlLMarvICSkJitSC4eFaWJkLNw+7rjgysodMJyuXOcWmyd+Zyl+ycHrLGb+PSDvwz2U3NnC6exucRqvsyVmi5QtrGiW6BBRDrnwuTiN9+eFxxA5vvvj1AEMIPcyNikBo7v2RQ5ZbXbpGD6O887MprxMTMXYojYdRxtEOneUcLnEeCZ9V+ar/AUKT/jm86bRfryd9xPlo2NEbynty/lwfsp1vg98DMfnvOjr6opPzu8xCbDakC7Y/sMiPIkIx/Qho5GhGOfMpHvGHW7ccP2v8DltqNH6w/ccho0dnZ+oRkhRFgJXsNVzfsKYlt3IpYpRpKo2LCAW2n2ytLp6OhTHVRQNiir/eblXNoCEmUoWuga5synpqX91rrGw3qXkVpT3bwe2YxR5A6ampopU9UCK8jWcPnYC5R4noqKzE8VcRT+f821gYfLwCI/tpZM1U4c/LZeXY0v2Gl7X2/028NDL3dt3keVWCS3btFKkqgcypnwNDdwa45SvJ7lQb44rVQkWIY8hplEFV5e2ljuZuAf5fQqS4c4zt+bNcd/zltrcCyVSlK/B0tISxs620NV984C1RHXJykxDRuALREVFKVLUA+m+vgH+xUHOlYdo1rgxMjNfP01OoprwZIWYyBjcMIhDlx7dFamqjxTlG+AHNn/bZwhcytmLXs/igI6+HjJS0sRzgDQBnsB/N/o51u7cKnqE1QEpyr+BhzOUg+rFgRZtWuPqpctiOEST4DeN5f9gQPWRotQwhgwZgg0bNohKKlFNZEePRKJiSFFKJCqGFKVEomJIUUokKoYUpUSiYkhRSiQqhhSlRKJiSFFKJCqGFKWGkJCQoFiDmG5WXN5QVRyRotQQeAbP0qVLxZPgZ8+erbbPr9EEpCg1BGNjYzH3093dHVWrVhUPOJaoJnLu678A31JVu638VIKsrEz06NEThw4dJIGq51uf1WVS+bsgRfkvcPz4GVy58lw8GU+VyH9NXBbFlAbi6ePqArUnSEtLRZMmtuje/VNFavFFivI9w7dz5sz1+PjjL0kEikQVgv/aXMnVCUNqPw4fvogRI8qiSpUqitTiixTle+bRowAsWXIfvXp1V0lRqiP89oGrVzdj+vQhipTijezoec94ePigXbvukE8PeT/wO3wDApJRo0ZpRUrxR4ryPcJjfz4+0eBXI8oRh/cDh+WenrvQqFEdRUrxR4ryPXL3rjfFP3WlIN8THPvy4uwMlCkjLaXkLbh1KwBNmzZERoYiQfJOGBhwOPAIjRtXEUM6moIU5XsiJSUVvr5JIgZ6l+ds8TAcV0Ze/sljdLiucu+kEl4vbCjv1f0Y5blex6v7FzX88Lnw8IuoW7emIkUzkKJ8T1y7dgPVqnWluFKR8BawSHj624sXIYiICEN6ehZMTBQbC4GFxsJ99uyxEBA3CM+fPxXpBYXJ37mC+/nd+kto/J3TQ0OD/0rjST7K4zjNx8dD5Mn7/R28z/ucJKQ8Z7VqRmr78te3RYryPXHvXhiqVi37Tr2u+aLMxLBhFfDgwQ307q2PoKAgWFnlWzSu9CxSFgyvm5kBycmp+OorfoEtwE+NHDnSkax2itiHj1F+srgCA2+JT07jz4iI55g7t70QtqUl4O/vI7ZxObiD5flzv7/25YXPyZ/KfPk7L7zOZfHzuwNzc8XFvCOc7+HDp9G8eW1FiuYgRfke4Ene3t7JojK/y6gvdxCZmhqjUqX6aNKkm0hLSYnF9evXMHt2d3h5XcCBA6uxatXXCA5+hps3r+Hy5S0kElNxXhZXw4Y9sG3bBGzcOEPkt3XrbMya1ZUE9pzKGYGkpFzaNh0TJ3ZAamoCxb/pWLRoKFnF+xg/vhad6xSMjYGXLxPx8OFlBAT4Y9Kk9vj66xoICwvD1KkfYdq0Tjh0aDVWr56AJ08C6Xtn3L17G99/X4/czXgh6HeF76WBwRNq6CorUjQHKcr3wOnTF9Cly+j30sHD4uJXJPTooYd+/aZTPNUQmzZ9h44dR+L27XNwdKxLld4Snp4HsWXLFPTs+RUqVKj+l9sZGvoQo0atJXEdxJ9/zkLFijVJ6FawsbHFpUu7yM3eT2l1SJCxKFeuMhwcapJlXoHjx1egadPeqFfvY3KbQfub4/z5beQ6lqfjDTF8+BoS6HUkJMTi55+PY/v2aVQOI2oIDKjM2SKf+vU/QcmSlu/kwjN8LXwvXV0tyAqTGdYwpCjfEX56up/f+xub5Fjq+XMf7NyZjF275pIQb5DbeRPly1cnK9ierFYTirMakqiSyN28SiKMpu0eQkh8bHj4Q+HG6ujwC1918fTpQ3Tq9A1V8mRERgaQ6DqSWKeScFdShTfA48dH6ay5JKRcimUf0z4hfwmc4euLj4+g/JNoPYdEqCeu08mpPrmyBnT++7hz5zQSE6OprEfJnea5tYqD3xJ2Xbdt24g2bdwUKZqFzixCsS55C54/DyHxBJNFq/POFoLdvpiYGLJMlrRYY8CAOeSu/oxx4zZj6dKe6Nt3IcqUqUiVXl8IbtCgn7BjxySy0t+T9atBx2uTaExo0SfBmaFz53G4cmUHWT07ikUt6VgncmHDKO4rTVZwO4k3m8T1EYkwjwRmRPt/gzNn/kDjxm0RHZ1IcaI1petSg1NBbOfjrl/fT+LUorLMRM2arbF//y/o1WsSnb8+ncOUrHZNEpWhiHHfFjaOiYk36bpaUdk0z27Iua/vyLp128h1G4S0tHeLJ5WwMJVDIVyxlVaH82YLyNvYIr56Lnb3eH+2Mkr4O+/LC69zrLh48bdkzSIobm2M9u1HwcpK/z8ExPumpOSXo2BsyOWIi8sSnU87dsShdGlLcU5lWdl68jo3TO/SOPE5+SEJenoH6Vzq86as94kU5TvAb+WaOnUjOnT4SlRkdYCFyWLiXlQW+T/tLWaxMrm52WS98pX4b9Qc7l3eunUtli/vSw2GlSJVs5Ax5Tvw4MEjirWc/5XK+W/Bv1zh8rJl/1+Gb5TXqHwx0L9xzUrhV6umI17aq6lIUb4l7GBcuHATPXu2FRVcnSjorv4vsBDZuv4bgmTYevv7R6B+/YokUIVCNRApyrckOTkZQUFZ/2ol1TTYCD94cACtWrVQpGgmUpRvya1bd1G+fDshSsm7w52sfC+rVzcji0kmU4ORonwL2HW9ccMfjRtXEuODkneHp+5du3aLXFfNm8HzKrL39S148eIF5s69gH79PlO7eFJV4aGcI0d+x08/jdDIscmCSFG+BXv3HsKhQ0ZwcipNsaV6mUonJ2s8fhxHa6rzZ9fV1UFUVBrFkpH4/PNeilTNRYryLXj27Bni4uIV39QLnnl0544XrameNXJ0rKhxP9MqDClKDWPw4MHYuHHjX+ONEtVDdvRIJCqGFKVEomJIUUokKoYUpUSiYkhRahiaPKdUXZCi1DCkKFUfKUqJRMWQopRIVAwpSolExZCi1EB4wrecyKW6SFFqCAkJCQgICBBPTw8MDERiYqJii0TVkKLUEMzNzTF37lwcO3YMW7ZskRO/VRg5IV2DePDgAVxdXcWvXOzt7RWpElVDivIN8NPBb9+6heTkJEWKepOja4RzJ46gdfuO0Mt7xydHqwiWVlaoW7ee4lvxQIryDbAof/95Bj5vXQFJqe/wOi0VwsDYDBmpxaORMTPWwy6PGHzxzVRFSvFAivINsCi3r1yAwX0aAWr2hAGNwNQAOw7ew4CvJioSigeyo+efwM/kz86RiyouxRApSolExZCilEhUDClKiUTFkKL8X+GfPvFzSQv7CZT23/wsqjg8z5Svu+C1F7ymV7cp4aRX0193rwq7R7xvYfkWU6Qo/xcsTKlyaCNH+crmghXFxJDSc19f2Qz1kZGR+Z+Vjo/XfcfXHhclVN7cnBzRKy3Krq+HTL4mHbomPV3xHfzyoIL3RY+uj98Cy9t4H8bYAHmF3SvKJy014z/vEa3n5dC+PEigzFed7tlbIEX5T7Eyx8aN7nD4eCS2HboIrardACMDHiwDSlphzi9b0PvbX+i7CWBKaSZG+du4Mlpb4EngcxjW7C3EKdJ5Hzo+JiZekUbH8TFKRN6UxhWZP3kxoLyU+3G+nA/vx/sYUcVXwtvNaT+uvMpjxf70aUj786JMU8JCUC5KrXA+xpQv78vnsLHAaY97OH7htrgfyfFJMOBronJlpKahRZ9J2H/mOlDKKl9AdP6YyHis+uMAFq3YiciXMYClGX5evhtTl+6g/azzz6e8j7RU6zrh/8/L10Bl1HbpgcjYJHEsTI3wMpLyKVj2YoYU5T9BVxexT8MwbNoKPDu9FkNG9cLVPxch5kUkxvywCjdOe2Boj49gakLiSkrFqMm/Ysfuk1i+Zg+iI2IxY+YqOLo4iayyafvEmb/j6NHLWLf1KEo0Hoy8tEyMmrgUe/edza+QVEmPn/LE+KnLkJ6Sht83HkC/L+fhZVgkvvtxFY4eu0qVPQbfTF0DT08/PA0Ow6oNB/KFScev334EixZvFdZlxZq96DV8JiLDo9Cb8vC9F4A7dx5g7FS6lqeh+UIn65+dmYVc8gD4k79zPotX7MLFi7cxY946JJEAF8zdABsSRs2qFfHMLwiHznmCpIQtO0+h/fDpmDD0E6zacQ4L522g40loJMw8UvjGAxfxw2/byYiSxSOr196tFq54+eHHySuEyG7c8MUXY39GdnQCvv+8gxDkSbqnX09Ygtte9/HlZx2wbPNhHDlwDgfdL6Js06EAW+iCFrkYIUX5T9DRweOwCFRzshUCRVQsmnZoAg/vIHzepTncPpuCzMxsONqWxuckrrXzx1Ojb4wrdwKRlpGBuWv3//W+vAiqeG0b18SnX81H7SoO2P3rdxgyZTk+bVUPfb4jS0siZCvwMjoWzhXssG7PaSzZeBgzRvfG4Ckr0KKBCx07Dz5BIejRtj46fjEPDmVLo2OL+qR4fse5DnIyc3HC0xtXb97HuPnrsXTyMHw0bDoGftIcLUdNR0xcCprXq4aRc38X58rOykY3EsA3P29B3ynLEP4iWliwlg2q4ejFW/D0DcS9R8EwJhf9/DVf3LofgM+orAP7fIzyDqVR2aEcvu7/CTKysvBln1bYd/oaYsI4Dy2Yk6s6Z1w/7F8xhQwfSZhc3xxygWtVcaRbqYVDB87jm4V/oHRJa+w9fQNj564H3TR0HDEbnVs1wG2fx4iLS8Kg7m3QZfQC1HR2wLTRvfJDiWI670WK8p9Alc21UgU8fByGqJdR5I5aIdQnELuPXxaenpOjndiN34lxhSpwTEQUGtZ0RmRcPMWRyjmm+RXoaegLvIiKRj3XypRtDmkwAydueKJZnWp4cnYt6YqsCVmrldtOoF51B+RRxa7maAsXF0ecuXYXrRu6Iu7WdqzZeYLaCh3Urm4PLbLQFSuUpgpP50hIwa5jl9C9VWMY6OugUvlyKF/FHn4BoejarhHu716OhX/shbNtGVibkztIFZstWExkAhLp2LiYJCoDiZssUcN6rliyyR0fN6uD5gN+QN+OTVGGrl1XRxc3yOLyxQc8i0A67ZuQmELHp6FiuVKoUtGWhJ4jyqNPVr9zBzf06NqKRE1eAImSY9JS5NLXdnVEdGw89KgBWDjzS7jVqiLuEceWw/u2Q0hkHEZ93RtR8YkoRyECk52dg2gqIzj/YooU5T+BKpGxtTm8Dy5F/R5TMOXHFXhO1qRtk9rYQQJwq+6E2/cfU2VJwOHl3wuX9J7/c6ydNgJdxy7Al30/xr07D9Gvc3MyQDo4cNYD9WtWhJGRHtbsPoerWxbDsuFnuODhB11LiqPILavkWBoXPe/D1z8YpW1scMPTF4/P/k77DcRZsladWtTFfrJINlZmuEbfv56xOj82I+sTm5qJFIrxTlJ6g1pOCA8MwYXNc6Dl3AXh0TGoV9UJRy7fRHR0IpCeCX0DA9xw/xVblk/E+T2LUIEsHzcMHEceXPUDxg/ugo0LxqJsnSq49/g5wiNi8OcvE9CT3OGhPdqSCMtjzwkPxCal4OnLCBjSNQaFhOd3AHGnUGp6vgfAHTZ0bUHkhmeQdX4QEIwypa3FfdSybQdDiq07NK+LhJAI3CEv5Ia3P+aTFa3uWAG+tG/P9k1gTX+HtbtPIZnutci/GCLnvr6Bv+a+9qgHJGfkd8iQdRKVgdzVv3oBueIpO0jE1C9a4XW2XMqKwxVS2duojIWUx/EnH8D7Jqfmb2OrwvtzHoyyB5L31+HjFXlwmjIfrvicN4tTWR4+jgQAPYodxZ+ay0Tl5v34OBbMm6qAMZUjk+I37hzisnGHDO/OefNxvC7cZnLr+ZwijRZ+AywJvlC4E0fcF0UZuCx8DJeTzvPw7kO4fDIOa2d/BUszU/Qd2IlcWsXcY76/3OmUTn8PatR2HPErdnNfpSjfwH+JUlI0GFCcS42FLvewGlBDyA1HYfCE9GIoSm6uJBLVguJwXbbs7CW8TpDFGClKiWrCbq2GOnFSlBKJiiFFKZGoGFKUEomKIUUpkagYckjkDfw1JDLIDUgpJkMiuVrUFBeTP7mJAXbs8pLjlJoEi3LLhjXQz1EM6BcDtuzYi749u8CQJwMUB4wsMWDICMWX4oEUpYYxePBgbNy4Ebo8A0eiksiYUiJRMaQoJRIVQ4pSIlExpCglEhVDilLD0FL+bEyiskhRahhSlKqPFKVEomJIUUokKoYUpUSiYkhRagiRkZFISEjAy5cvER8fj+TkZMUWiaohRakhWFtb4+uvv0Z0dDSWLFkCIyMjxRaJqiFFqSHwXFee9+rl5YW+ffuKZ8ZKVBONnZAeGxuL1JQUxTfNwKZ0KUz74UfMmj8HCVExilT1x9rGBsbG/AKF4oHGivLg/v0I2nwMZezLIye3+D5tuyB5uXmwKFkCiVH5rxRQd7ToX2psMmw+aYg+Az9TpKo/Gm0p/5y6EGMGfonMVM2ymMUJfRNTLHXfhq/nTYMeP5ayGKCxouTLXrNoCUY3+RTR8VGKVIm6YW5sggPu7nAd2QM1atRQpKo3GtvRw9PNqrs1gMeNqzAxlD2R6kpqRjp6duiEe9duKlLUH43ufW3UuDGuhwdCX0d1foXPjYWpkTHMyALwp66il9SM1rX5XR2FoEPp5samim+aRXZODnQMDRDpF4iUYtJxp9Gi1NfXh6mTLVVqHWirwERtFqSBrh5uB/jhsu9tXPbxEq9+K2Flgw0nDkEXWv8lTCFaKvqJW1eEMPkq3jTpXGwX///nfoUdUzDldfu+6VxFRUZ2FuqXcYT3nTuKFPVGo0XJFapRqxbYe8RdWCVVgMu0dM82LN21FSnpaSjZozkehwXDvmRpaJEAjQ0MYUrutoWJKYz0DYSV5F7VbtPGISMrA4a0zVBPX2xnt5wXpRXla9SnYwz09cjymggPgbdzOjcGbJ2Vx/C6sSFZbMqHrbSBIk9xXlo3on14nc+lPOZD3cO0zAy0qN8Ij277KFLUG/ngLGLt9AUY0bwz4lKTFCkfDhbDz7vWkwiMMWnYWKzavg4X/bwQFhWFw3OWYY37LsSlJKFxtRpYd3Q/zt/xgPe6fegz5zvcWLUTw5bMQmkra7SsUR97z53A/JHjMGb5Tzi3ZAOu3ruNkUtnw6G0LepWdsWvO7fgwTZ37Ll4Er8fPYDdM36C+5VzSE7PQN82HXD94V2yzjqITohFZHwSOjVyQ2xyInyC/HHr0QP8OHAEtpw6Bl0DLQxq3QkLd23DiQXLkPgBerOtTM2pIduIoT/PELOX1BmNtpRKLJ0rIDM5RbyhWBXg15SnU+vPb5AuYWGJnKxcGJN1y83LxczNq9CgcnVULV8JDaq44O6G/Vh5aBeJWA/6ZO061HfDmSuX0LxmXRy8cR6X7t3BpklzkEn5OZW3h4meEYlpJOWVjdnDRuOM1w2co2XW5yOQkpqOOdt/R51KVYXr+u2Kn9CsRj00paVsSWtc9PXCnI0r8XW3z8h6GuHnHRvxeYfOKG9REm0bNMXphSuQlPZhHsfJ1rJbw9bwuHpNkaK+SFESTVo2x5r9e8gFM1SkfFiSklKQmpWOoKeB6DdvEuYNG4NzdzyRkJyMayt3YMD8SXgeGYbs3By8iI5C0+q14fv0Me6RBTvrdR05+lqIT0rA5knz8M1vy1HK0hrpWZnIyclBMFnctIx0hEZF0rHRMCSxn7p9HRXL2OFJ5HOc++UPDFo0BVGJ8bi1dg8GzJuM9hNHoKaDMwnYEz+PnICRy+Zix4+LcO6eB2Li42FpZo6Hz55g35Uz5PJ+mJ7sDLo+p4oVEeYXqEhRX6QoCXt7siCudtDT5q6UDwd3NrGVrOLgCEMdPey9eAov9l1CpbJ2WD7uB0TFx+DwlfM4Q8KxNrfCkt1byDIl4/OPu2LZmB9gYW6O2k5Vseqb6dDV1keDatWxY+YMka8eeQFPXjzHnCGjkJWThY/rN0PdKlVhV6I0Ti9ej+XuOzGkY29sO38MxxetRRWyqn+QS7t3zhIcWbASORTlfNOtH8753kT3pm1g2cUNj7YexeHrZ9GtWVsy6hlIS8v8YPePo7As5CL5fjBCQ0MVqeqJjCkVHDvkjmoRuShlZ5vvOn4gWECmFFeKdzPSOls1flK7iaGxcF95uz5Zo193b8JNfx9smjgf2TnZwn3Nof24d9aAjt98ZA/FV9ORfPyWsCL5eRiJnuY8+qfsNeU/f/6aFlLSU8U+DA81cM8u58nHiN1pqT28D7nGtSmmrY2BbTuJ97ry+TlP3i/5A7mvDJfXIFsLhxID0f/zQYpU9UOKUgH/pGnL1EUY33uQ6Eh5E4b6+qLXU5sqIbuE+WOJXGvzqPJTJdfWQtK/2NnB57Y0M0N6RgZS0zOEIISYjYxFTMd/Uu4xzSJBZbHbSp/vAxYy9/iy1TSie5BLn6npaULABeHyGRkY/iVQPo7LlpWdLRoNPubfwsrEDOuvHMOoOVMVKeqHdF8VlChRAhZVKkAnj8SmsCKFwYIMCg9DYGgILt67hfDYKGw9ewQXfG5i96VTeBDyGJfueYnpX0qUVqkgBdP+8bghpfFiZWaBg1cu4sJdL5gY5Q9N6Ovp4/jNayQGfSq/thAnd+68KkhlvoWdi4dblHH1f2xXLCx27lDJIcuYnJqGU7eu0Xqu+FmYcn8WZC41EhuPHRBC5LKwFT/jxfFnLPweB/5X3Pnf58r/rkwXaQX2eRM55E1YxGThvp+fIkX9kKIsQNX6tXHZ01O08q+De2gjSYiztq7Bb3u3YdyyRXAqWwEdJo5ESQtrbD11BNM2/Ua1SPuvcT0e4+OxRa5YXEnZRdSnimrO43wkcgMDvXxh8VghfZoZ8zGcZibOyY0ED5Xw+KCNdUkc9biEuwG+yM7NgiFV/KM3LovK2H36WGRm51ClNxT783lZaHxeFoshj1HyOegY5TaRL6VzIxIYFgK/p49RwsJKnJ/HMnkfQ1oMaNEj8XEeHJ+yd9DlxzGIToyHqYERbdMjEeY3RKYGxihXqjQM6VqMDPUpvtXBp1NH42nkS3SeM/Y/Gj0+B5eF7wmXi8dRjY0M8u8R5cmf+WOveuL8fwdb5/49euLauYuiEVFHpPtaAJ6m9fuUuRjf9TPweFxhsJgi4mKp4hniJbX8TuXIupK7atqpAWIOXRWdKHWG9kTbxs3QtWkbqhha2H/5OCyMzLF07BQRf/VbMBGlzEpgeKce6D13Auo5V0O/Np3wx/EDGPzRp3gaHYbwyCi0rtMQvVq0E+7ht6t/olg3E13cWmLD8YP8SjBs+3ERe8wo0b0ZTv2yDtN+X4oalVxQoXRp2q811h7di2v37+DWyp1Iz8pC/a8+QxkrS4zvMRjn793Ai6gozBv+DTZTQ/Io+DGVPRs1KzqibImyePYiHLUqV8Z5r5vCVCWnJWPXtF8wetlceN73w9Ixk7Di8G6sHvsDNp85grXHdmPftMVoXL0ezt66im1nj2FI+2649/gRdPX10KZWA9iYWiA9O4MsvTkyqTxsSa/dv4tdF0/Chqy/U1k7/LxnC8Z07YdourfLd2+F18Z9mLllrQgLVoz7gQSu9V/u8qtwY7bi6C58/fMsakzU7+1i0lIWwMTEBCVdKiEvM4uEVvgv87ky8eC8ibGx6KHMIREqf4/JrqKejh4q2VfE4i+/wzr3vVixfxuGf9IX5UuXYx9MuJm9m3fE/eAgsmqZFBtawn3eSszdvBbf9BwAPX0dtKzRAOXJIp4h95CNyt2gB4iIjcaG72ej58xvMaj9J+jdpgMsqfIZUaVzq14bbWo3RFR8FFZ/MxV/nj6JFQf+RM9mH9G5PhZDJ/pkZZ6EPcXFJRuxcPsGdG/WDp0at0R/ahQWDBuD9RNnwcXBiRqKXpRfLZQvUwoX79yEtaUZpvYfhnNXbyI8KhLPXr5Es1q14OrgTPciE/efP8Xthz5YOHQ8ElJTkUtxY9UKjvB/+pTuhTY1Jovg5lITLvaOMCILyIJka8tWkDufHMvZoUmVmth+0h3lS5bBmG59YWtTUjQE8776loRrivb1m8Ar8B5e0j3g4/4Odq/r2tjj9s1bihT1QoryFWo2qY+9J47+FVsVBguTF/6FAlcspa+RS5WfW/Qrvl5iXDCXapbXo7vISE8nbzYPOvQ9+GUYhiz6AdUrOiM8JpqEEiry8Q99Iqa1sRvY5ruhcKpgL+LTDLKOFUjQh66dR3J6KlrUqIuUtDSycpGKXk/gup83/J8/wzOyfBlkiQLCg4X7efuRH6zNzYWFzVPEllyuoLAAElcYuc8mcCpVAXO2rcamI4eQo5WHqw/uovHoz+BYxg6BlGdMQoLoTEpGCqzJysbHJ1EZGqFcydIIfBlKLrUeDl+/gPIlSuJ5ZIRwlbNzs3EnOFhMC7y0bAvqfdlbXCPfMxYkD+WkZaULd/TLX+eIuathFBJEJ8XhWWi4iDnnbfsdlW3txZDL5mOHYKJvhLjEBOGG/x3J6Wlo1bI1vK96qKULqzOLUKxLCBsbG1y4fAlNnWsgNTNdkfp6OOa6/+wx6pILqk9Wi+eTVi1fkQMD2Jcpi8WjJmHG5tWYOegr8SNc7qQpZ1NKWLaw6Bf4qF5jYSG+6NgN83asp/1GoX6V6tAjS12FLE6tSlVhSTHmp26t8P2G37Bvxq94SK4mT6av7lhZWKOODVviEVmsdnUbi5jSrXpNfEUu4PGbl9GpQXM4lrUV458VytBnRiYWjJyAVQd3oE+rDvi8U1ccv3EVAzt3Qae6TXDlvi+mDxwpptY1rFYLlcg9NzDQISE2IGsdRcLNQUJSPPZePo3+rT6Gc3kH4SrvunRKlJ3n3z548hiNqlaFHV0XTyjYOGmumH/LjQi7/wu2r0EVu0rk+pdHU5dauBP4QMwSiqOQoYSFOfp3/wzlzS0pTIjD6G79KJSIR5/WHZFOwmbLmkki/jv06b5cuXwFLi0aqd1DwmRMWQj7tu9EG71y0DUx/EcVgIWpHNPjhV0s5VhgFh3PnUNsJXi8kNO4Q4NvOq+zmWXB8PFsBbh3kzteBLQ9KSVZ7MsdHrxPClldPh+TlJYiLEF+L2d+5wkPU3BnErvGXA4uD09s56EIU7LE7Gpz7MidK2I9K1u4wByn8b7c8cR55JeNMhRFzIMBnd/9yln8uHkl+pDryzGwc3k7pGVkKKwXlVVRHrZ03LkjxlVpGw+F8Hgrw+cNJzfUsUw5JNC18bnZ5efz8BXwKRMpnTvB+AtbWOX1cn7/dByULXJESBgeldVBpy6fKlLVAynKQnj27BmOz16JEf0HUpwkn4+qxNTEGNmZ2aKRYYGwYN4GFiY3UP82JSyssfzSIXw9fbJaPb1PxpSFYGdnhyw7C3I39RUpEiY5JVXEfxzbvq0gmaIQJMMTJ/IeRyJMzabdSVEWAreqzvVrI9Df//9dSYlAnRwrDgUGf9IdHleuK1LUA+m+voaYmBhsmTQP4/sPRSLFShL1xNLUAktP7MHoeVNF55g6IEX5Gvi2rP3pV3zl2gop/7BzQR3INNCGfib9yTXkz25gZIh97ofhOq6v2jztToryDdy7dw8BPvcV34oHfQYPwPY/NouhCU2icnUX1KpTW/FNtZGi1DCGDBmCDRs2iEnkEtVEdvRIJCqGFKVEomJIUUokKoYUpUSiYkhRahiyX0/1kaLUMKQoVR8pSolExZCilEhUDClKDYN/3yhRbeRfSEOIj4/Hw4cPxcPB/P39xYR7iWoiRakhmJubY8GCBTh06BC2bNmi9m+mKs7Iua8ahI+PD2rVqoWnT5/CwcFBkSpRNaQoixh++UwIiSIjteh/DpZnZIQzR46gdYcO0MvOVqQWHUYmJnBwdkbp0qUVKZLCkKIsIvg279+2DTq3b6N6yZIwMzZGzgcQhjEJIjUyssh/T6mjq4vktDTcePYMNp06oWP37vkP55L8F1KURYS3lxeif/0VbUeOBNhKauJtZxGStdz1yy+otWgRqlWrptggKYgUZRGxa80a9HNyAshaaKQgC2JpiW2BgRg0YoQiQVIQ2ftaROSlK57+JttAICMD2rRICkeKUiJRMaQoJRIVQ4pSIlExpCiLM/xuRn57GC+8Xhj8VLvXbZN8EKQoiyskttCXL/H4+XP4BQUhPCLiv8Wnr4+EhAS8oP2kMFUHKcriCI8H0jJh0yaMWr0aWrm5GL5ypRgjFOLjJ4WzhTQ2xilvb4xdv55qgqwKqoL8SxRHeNhFVxctXVxQw95evNj1txEjsHrHDnyxZAmaTJokRLjgjz+w/vx5VLW1VRwoUQWkKIsxPC8kLDoaQZGR4v2YBiTULz76CFYUY+4iMdqYmmLPN98gRY4ZqhRSlMWYiPh41Hd2RvtPP8UOEmECCTMpLQ3PXrxAKXNzjFq7Fn4Uc3oHB8tJDSqEFGVxhGNKEmBZGxvxFuXvZs1CpbJlUYPcVH7r8vguXYRbu338eFy4fx9TuncX7qxENZBzX4uInb/9hv6urvmT0YsCFuab3vWfm/ufQizKn5JRuXYEBmLAmDGKBElBZPNYXOG2loX2uoXn4hb8LlEZpCglEhVDilIiUTGkKCUSFUOKsojgx2GIOI87YDQdPT1o86wiSaFIURYR5vb2yAgNFVPbNBozM0TcuYMy/BQGSaHIIZEiIjMzE3PHjsXsJk2gbWcH5OQotmgQ5C2kBgTgt6AgTF60SL7i/TVIURYh6enpOHXkCJL5Vxkf4El2H5o8EiE/Te+Tbt2gL93X1yJFKZGoFMD/AcgELjOJgzauAAAAAElFTkSuQmCC;" parent="1" vertex="1">
                    <mxGeometry x="-280" y="30" width="443.45" height="579" as="geometry"/>
                </mxCell>
                <mxCell id="24" style="edgeStyle=none;html=1;entryX=0.508;entryY=0.132;entryDx=0;entryDy=0;entryPerimeter=0;" parent="1" source="21" target="23" edge="1">
                    <mxGeometry relative="1" as="geometry"/>
                </mxCell>
                <mxCell id="21" value="&lt;font color=&quot;#000000&quot;&gt;Display message:&lt;br&gt;&quot;Enter the height of the reclargle&quot;&lt;/font&gt;" style="strokeWidth=2;html=1;shape=mxgraph.flowchart.display;whiteSpace=wrap;strokeColor=#9673a6;fillColor=#e1d5e7;" parent="1" vertex="1">
                    <mxGeometry x="335" y="310" width="170" height="70" as="geometry"/>
                </mxCell>
                <mxCell id="27" style="edgeStyle=none;html=1;entryX=0.5;entryY=0;entryDx=0;entryDy=0;" parent="1" source="23" target="17" edge="1">
                    <mxGeometry relative="1" as="geometry"/>
                </mxCell>
                <mxCell id="23" value="&lt;font color=&quot;#000000&quot;&gt;Read height input&lt;/font&gt;" style="html=1;strokeWidth=2;shape=manualInput;whiteSpace=wrap;rounded=1;size=26;arcSize=11;fillColor=#fff2cc;strokeColor=#d6b656;" parent="1" vertex="1">
                    <mxGeometry x="355" y="420" width="130" height="75.83" as="geometry"/>
                </mxCell>
                <mxCell id="29" style="edgeStyle=none;html=1;entryX=0.5;entryY=0;entryDx=0;entryDy=0;entryPerimeter=0;" parent="1" source="26" target="12" edge="1">
                    <mxGeometry relative="1" as="geometry"/>
                </mxCell>
                <mxCell id="26" value="&lt;font color=&quot;#080808&quot;&gt;Display message:&lt;br&gt;&quot;The area of the reclargle is&quot; ,area&lt;/font&gt;" style="strokeWidth=2;html=1;shape=mxgraph.flowchart.display;whiteSpace=wrap;fillColor=#e1d5e7;strokeColor=#9673a6;" parent="1" vertex="1">
                    <mxGeometry x="335" y="690" width="170" height="70" as="geometry"/>
                </mxCell>
            </root>
        </mxGraphModel>
    </diagram>
</mxfile>